<svg width="14px" height="14px" viewBox="0 0 14 14" xmlns="http://www.w3.org/2000/svg">
  <path fill="#EB4434" fill-rule="nonzero"
    d="M0.966873148,3.1390267 C1.68327498,2.31955833 2.25693509,1.40752542 2.18691085,0.404289215 C2.18017775,0.302195979 2.18152437,0.200102743 2.17479127,0.0993707499 C2.17075141,0.0503659965 2.20711015,0.00816745889 2.25693509,0.00408372945 C2.28656073,0.0027224863 2.31483975,1.77635684e-15 2.34311877,1.77635684e-15 C4.50040399,1.77635684e-15 6.24966335,1.6879415 6.24966335,3.76928228 C6.24966335,3.92582524 6.23889039,4.07828447 6.21869109,4.22938246 C6.20791813,4.3124183 6.30487476,4.36142305 6.36412604,4.30288959 C6.98626448,3.69577515 7.39698357,2.88855796 7.47912739,1.98605375 C7.48451387,1.92343657 7.55319149,1.886683 7.60974953,1.91935284 C9.04255319,2.77012981 10,4.29199965 10,6.03439088 C10,8.0258896 8.74899004,9.735611 6.96337194,10.4720435 C6.64018314,10.6054454 6.2806356,10.5264933 5.94398061,10.5264933 C5.17236736,10.3032494 4.44249933,9.89079272 3.83113385,9.29048449 C3.60220846,9.06451813 3.4029087,8.8208556 3.22650148,8.56630313 C3.18610288,8.50640844 3.09587934,8.52002087 3.07433342,8.58672178 C2.89253973,9.11896785 2.80635605,9.67435506 2.81443577,10.2311035 C2.81578239,10.2964432 2.74845139,10.340003 2.68920011,10.3114169 C1.09345543,9.50419966 0,7.89521026 0,6.03439088 C0,4.9971236 0.324535416,3.99933237 0.902235389,3.21253383" />
</svg>